<svg xmlns="http://www.w3.org/2000/svg" viewBox="0 0 800 500" width="800" height="500">
<defs><filter id="crayon"><feTurbulence type="fractalNoise" baseFrequency="0.035" numOctaves="2" seed="25"/><feDisplacementMap in="SourceGraphic" scale="3.5"/></filter></defs>
<rect width="800" height="500" fill="#ffffff"/>
<g filter="url(#crayon)">
<text x="400" y="36" font-family="'Comic Sans MS','Segoe Print','Chalkboard SE','Marker Felt','Hiragino Maru Gothic ProN','Yu Gothic',cursive" font-size="28" font-weight="700" fill="#2B2B2B" text-anchor="middle" transform="rotate(0 400 36)">ペンキは、重ね塗り</text>
<path d="M40,59.2 C43.5,55.3 55.3,58.5 63,58.4 C70.7,58.4 78.3,58.4 86,58.8 C93.7,59.1 101.3,60.7 109,60.5 C116.7,60.3 124.3,57.8 132,57.9 C139.7,57.9 147.3,60.6 155,60.7 C162.7,60.8 170.3,58.6 178,58.4 C185.7,58.1 193.3,58.8 201,59.1 C208.7,59.4 216.3,60.2 224,60 C231.7,59.8 239.3,58.1 247,57.9 C254.7,57.7 266.1,54.9 270,58.9 C273.9,62.8 270.4,74.3 270.5,81.7 C270.7,89.1 271.1,96.1 270.8,103.3 C270.6,110.6 269,117.8 268.9,125 C268.9,132.2 270.2,139.4 270.3,146.7 C270.5,153.9 269.9,161.1 270,168.3 C270.1,175.6 271.3,182.8 271.1,190 C270.8,197.2 268.7,204.4 268.6,211.7 C268.4,218.9 269.9,226.1 270.2,233.3 C270.6,240.6 271.1,247.8 270.8,255 C270.5,262.2 268.7,269.4 268.4,276.7 C268.1,283.9 268.7,291.1 268.8,298.3 C269,305.6 272.8,316.1 269.2,320 C265.5,323.9 254.5,321.9 247,322 C239.5,322.1 231.7,321.3 224,320.8 C216.3,320.2 208.7,319.3 201,318.8 C193.3,318.3 185.7,317.8 178,317.9 C170.3,318 162.7,318.7 155,319.2 C147.3,319.8 139.7,321.1 132,321.3 C124.3,321.5 116.7,320.6 109,320.4 C101.3,320.2 93.7,319.9 86,320 C78.3,320.1 70.7,320.9 63,320.7 C55.3,320.6 44,322.9 40,319.2 C36,315.4 39.1,305.4 39.3,298.3 C39.4,291.3 40.4,283.9 40.8,276.7 C41.3,269.4 42.2,262.2 41.9,255 C41.7,247.8 39.6,240.6 39.3,233.3 C39,226.1 39.9,218.9 40.3,211.7 C40.7,204.4 41.6,197.2 41.7,190 C41.8,182.8 41.6,175.6 41,168.3 C40.4,161.1 38.5,153.9 38,146.7 C37.5,139.4 37.9,132.2 38,125 C38.1,117.8 37.9,110.6 38.6,103.3 C39.3,96.1 41.8,89 42.1,81.7 C42.3,74.3 36.5,63.1 40,59.2Z" fill="#fff" opacity="0.85" transform="translate(3.1,3.8)"/>
<path d="M40,59.2 C43.5,55.3 55.3,58.5 63,58.4 C70.7,58.4 78.3,58.4 86,58.8 C93.7,59.1 101.3,60.7 109,60.5 C116.7,60.3 124.3,57.8 132,57.9 C139.7,57.9 147.3,60.6 155,60.7 C162.7,60.8 170.3,58.6 178,58.4 C185.7,58.1 193.3,58.8 201,59.1 C208.7,59.4 216.3,60.2 224,60 C231.7,59.8 239.3,58.1 247,57.9 C254.7,57.7 266.1,54.9 270,58.9 C273.9,62.8 270.4,74.3 270.5,81.7 C270.7,89.1 271.1,96.1 270.8,103.3 C270.6,110.6 269,117.8 268.9,125 C268.9,132.2 270.2,139.4 270.3,146.7 C270.5,153.9 269.9,161.1 270,168.3 C270.1,175.6 271.3,182.8 271.1,190 C270.8,197.2 268.7,204.4 268.6,211.7 C268.4,218.9 269.9,226.1 270.2,233.3 C270.6,240.6 271.1,247.8 270.8,255 C270.5,262.2 268.7,269.4 268.4,276.7 C268.1,283.9 268.7,291.1 268.8,298.3 C269,305.6 272.8,316.1 269.2,320 C265.5,323.9 254.5,321.9 247,322 C239.5,322.1 231.7,321.3 224,320.8 C216.3,320.2 208.7,319.3 201,318.8 C193.3,318.3 185.7,317.8 178,317.9 C170.3,318 162.7,318.7 155,319.2 C147.3,319.8 139.7,321.1 132,321.3 C124.3,321.5 116.7,320.6 109,320.4 C101.3,320.2 93.7,319.9 86,320 C78.3,320.1 70.7,320.9 63,320.7 C55.3,320.6 44,322.9 40,319.2 C36,315.4 39.1,305.4 39.3,298.3 C39.4,291.3 40.4,283.9 40.8,276.7 C41.3,269.4 42.2,262.2 41.9,255 C41.7,247.8 39.6,240.6 39.3,233.3 C39,226.1 39.9,218.9 40.3,211.7 C40.7,204.4 41.6,197.2 41.7,190 C41.8,182.8 41.6,175.6 41,168.3 C40.4,161.1 38.5,153.9 38,146.7 C37.5,139.4 37.9,132.2 38,125 C38.1,117.8 37.9,110.6 38.6,103.3 C39.3,96.1 41.8,89 42.1,81.7 C42.3,74.3 36.5,63.1 40,59.2Z" fill="none" stroke="#2B2B2B" stroke-width="5" stroke-linecap="round" stroke-linejoin="round"/>
<path d="M58,79.9 C61.8,80 73.1,80.2 80.7,80.1 C88.2,80.1 95.8,80 103.3,79.8 C110.8,79.6 122.2,79 125.9,78.8" fill="none" stroke="#8EC9F0" stroke-width="22" stroke-linecap="round" stroke-linejoin="round"/>
<path d="M58,149.1 C62,149.3 74.2,150.2 82.3,150.1 C90.3,150 98.4,148.4 106.5,148.4 C114.6,148.4 122.7,149.9 130.8,150.1 C138.8,150.3 151,149.7 155,149.6" fill="none" stroke="#8EC9F0" stroke-width="22" stroke-linecap="round" stroke-linejoin="round"/>
<path d="M58,229.6 C61.2,230 70.9,230.9 77.4,231.6 C83.8,232.3 90.2,233.4 96.7,233.8 C103.2,234.3 112.9,234.1 116.2,234.2" fill="none" stroke="#8EC9F0" stroke-width="22" stroke-linecap="round" stroke-linejoin="round"/>
<text x="155" y="370" font-family="'Comic Sans MS','Segoe Print','Chalkboard SE','Marker Felt','Hiragino Maru Gothic ProN','Yu Gothic',cursive" font-size="26" font-weight="700" fill="#3F7BE0" text-anchor="middle" transform="rotate(0.5 155 370)">1回目</text>
<text x="155" y="405" font-family="'Comic Sans MS','Segoe Print','Chalkboard SE','Marker Felt','Hiragino Maru Gothic ProN','Yu Gothic',cursive" font-size="20" font-weight="700" fill="#9E9E9E" text-anchor="middle" transform="rotate(-2.3 155 405)">1冊目</text>
<path d="M285,59.6 C288.5,56.2 300.3,61.5 308,61.6 C315.7,61.7 323.3,60.2 331,60.3 C338.7,60.4 346.3,62.5 354,62.1 C361.7,61.7 369.3,58.5 377,58 C384.7,57.5 392.3,58.5 400,59 C407.7,59.6 415.3,60.7 423,61.1 C430.7,61.6 438.3,62.2 446,61.8 C453.7,61.4 461.3,58.8 469,58.7 C476.7,58.5 484.3,60.8 492,61 C499.7,61.3 511.2,56.8 515,60.3 C518.8,63.7 515.2,74.5 514.9,81.7 C514.6,88.8 513.2,96.1 513.1,103.3 C513,110.6 514,117.8 514,125 C514.1,132.2 513.2,139.4 513.2,146.7 C513.2,153.9 513.7,161.1 514.2,168.3 C514.7,175.6 515.7,182.8 516.1,190 C516.6,197.2 517.3,204.4 516.8,211.7 C516.3,218.9 513.4,226.1 513.3,233.3 C513.1,240.6 515.8,247.8 515.8,255 C515.8,262.2 513.4,269.4 513.2,276.7 C513,283.9 514.7,291.1 514.8,298.3 C514.9,305.6 517.4,316.1 513.6,320 C509.8,323.9 499.4,321.8 492,321.6 C484.6,321.4 476.7,319.5 469,318.9 C461.3,318.3 453.7,318.1 446,318 C438.3,318 430.7,318.1 423,318.7 C415.3,319.2 407.7,321 400,321.3 C392.3,321.6 384.7,320.7 377,320.5 C369.3,320.4 361.7,320.5 354,320.3 C346.3,320.1 338.7,319.8 331,319.6 C323.3,319.4 315.7,318.7 308,319 C300.3,319.3 289.2,324.7 285,321.2 C280.8,317.8 283.4,305.8 283.1,298.3 C282.8,290.9 283,283.9 283,276.7 C283,269.4 282.5,262.2 282.9,255 C283.4,247.8 285.1,240.6 285.8,233.3 C286.5,226.1 287.2,218.9 287.2,211.7 C287.1,204.4 286.2,197.2 285.4,190 C284.7,182.8 282.7,175.6 282.9,168.3 C283.1,161.1 286.1,153.9 286.6,146.7 C287.1,139.4 286.3,132.2 285.7,125 C285.2,117.8 283.1,110.6 283.3,103.3 C283.5,96.1 286.7,89 287,81.7 C287.2,74.4 281.5,62.9 285,59.6Z" fill="#fff" opacity="0.85" transform="translate(-1.8,-0.5)"/>
<path d="M285,59.6 C288.5,56.2 300.3,61.5 308,61.6 C315.7,61.7 323.3,60.2 331,60.3 C338.7,60.4 346.3,62.5 354,62.1 C361.7,61.7 369.3,58.5 377,58 C384.7,57.5 392.3,58.5 400,59 C407.7,59.6 415.3,60.7 423,61.1 C430.7,61.6 438.3,62.2 446,61.8 C453.7,61.4 461.3,58.8 469,58.7 C476.7,58.5 484.3,60.8 492,61 C499.7,61.3 511.2,56.8 515,60.3 C518.8,63.7 515.2,74.5 514.9,81.7 C514.6,88.8 513.2,96.1 513.1,103.3 C513,110.6 514,117.8 514,125 C514.1,132.2 513.2,139.4 513.2,146.7 C513.2,153.9 513.7,161.1 514.2,168.3 C514.7,175.6 515.7,182.8 516.1,190 C516.6,197.2 517.3,204.4 516.8,211.7 C516.3,218.9 513.4,226.1 513.3,233.3 C513.1,240.6 515.8,247.8 515.8,255 C515.8,262.2 513.4,269.4 513.2,276.7 C513,283.9 514.7,291.1 514.8,298.3 C514.9,305.6 517.4,316.1 513.6,320 C509.8,323.9 499.4,321.8 492,321.6 C484.6,321.4 476.7,319.5 469,318.9 C461.3,318.3 453.7,318.1 446,318 C438.3,318 430.7,318.1 423,318.7 C415.3,319.2 407.7,321 400,321.3 C392.3,321.6 384.7,320.7 377,320.5 C369.3,320.4 361.7,320.5 354,320.3 C346.3,320.1 338.7,319.8 331,319.6 C323.3,319.4 315.7,318.7 308,319 C300.3,319.3 289.2,324.7 285,321.2 C280.8,317.8 283.4,305.8 283.1,298.3 C282.8,290.9 283,283.9 283,276.7 C283,269.4 282.5,262.2 282.9,255 C283.4,247.8 285.1,240.6 285.8,233.3 C286.5,226.1 287.2,218.9 287.2,211.7 C287.1,204.4 286.2,197.2 285.4,190 C284.7,182.8 282.7,175.6 282.9,168.3 C283.1,161.1 286.1,153.9 286.6,146.7 C287.1,139.4 286.3,132.2 285.7,125 C285.2,117.8 283.1,110.6 283.3,103.3 C283.5,96.1 286.7,89 287,81.7 C287.2,74.4 281.5,62.9 285,59.6Z" fill="none" stroke="#2B2B2B" stroke-width="5" stroke-linecap="round" stroke-linejoin="round"/>
<path d="M303,80 C306.7,80.2 317.8,81 325.2,81.2 C332.5,81.3 339.9,81 347.3,80.7 C354.7,80.4 362.2,78.9 369.5,79.2 C376.9,79.6 384.3,82 391.7,82.6 C399,83.3 406.4,83 413.8,83.1 C421.2,83.2 428.6,83.7 436,83.3 C443.4,83 454.5,81.3 458.2,80.9" fill="none" stroke="#8EC9F0" stroke-width="22" stroke-linecap="round" stroke-linejoin="round"/>
<path d="M303,116.3 C306.9,116.3 318.5,116.4 326.3,116.3 C334,116.3 341.8,115.9 349.6,116.1 C357.3,116.3 365.1,117.4 372.8,117.4 C380.6,117.3 388.4,115.9 396.1,115.5 C403.9,115.2 415.5,115.5 419.4,115.5" fill="none" stroke="#8EC9F0" stroke-width="22" stroke-linecap="round" stroke-linejoin="round"/>
<path d="M303,151 C306.6,150.9 317.6,150.6 324.8,150.4 C332.1,150.2 339.4,149.8 346.6,149.7 C353.9,149.6 361.2,150.1 368.5,149.8 C375.7,149.6 383,147.8 390.3,148.1 C397.6,148.4 404.9,151.4 412.1,151.6 C419.4,151.8 426.7,149.9 433.9,149.3 C441.2,148.6 448.5,147.6 455.8,147.6 C463,147.7 474,149.4 477.6,149.7" fill="none" stroke="#8EC9F0" stroke-width="22" stroke-linecap="round" stroke-linejoin="round"/>
<path d="M303,189.6 C306.8,189.5 318.1,189.4 325.6,189.1 C333.2,188.8 340.7,188 348.2,187.9 C355.8,187.7 363.3,188.4 370.9,188.3 C378.4,188.3 386,187.3 393.5,187.6 C401.1,188 408.7,190.5 416.2,190.4 C423.7,190.2 435,187.3 438.8,186.7" fill="none" stroke="#8EC9F0" stroke-width="22" stroke-linecap="round" stroke-linejoin="round"/>
<path d="M303,229.2 C306.9,229.6 318.7,230.7 326.5,231.2 C334.4,231.7 342.2,232.4 350.1,232.3 C357.9,232.3 365.8,230.9 373.7,231 C381.5,231 389.4,232.1 397.2,232.4 C405.1,232.8 412.9,232.4 420.8,232.9 C428.6,233.4 436.4,235 444.3,235.4 C452.1,235.8 463.9,235.4 467.9,235.4" fill="none" stroke="#8EC9F0" stroke-width="22" stroke-linecap="round" stroke-linejoin="round"/>
<path d="M303,265.2 C307,265.4 319.2,266.8 327.2,266.6 C335.3,266.4 343.4,264.3 351.5,264.1 C359.6,263.9 367.7,265.1 375.8,265.2 C383.8,265.2 396,264.4 400,264.3" fill="none" stroke="#8EC9F0" stroke-width="22" stroke-linecap="round" stroke-linejoin="round"/>
<text x="400" y="370" font-family="'Comic Sans MS','Segoe Print','Chalkboard SE','Marker Felt','Hiragino Maru Gothic ProN','Yu Gothic',cursive" font-size="26" font-weight="700" fill="#3F7BE0" text-anchor="middle" transform="rotate(-0.3 400 370)">2回目</text>
<text x="400" y="405" font-family="'Comic Sans MS','Segoe Print','Chalkboard SE','Marker Felt','Hiragino Maru Gothic ProN','Yu Gothic',cursive" font-size="20" font-weight="700" fill="#9E9E9E" text-anchor="middle" transform="rotate(-2.1 400 405)">別の本・動画</text>
<path d="M530,61.4 C533.6,58.2 545.3,62.1 553,61.9 C560.7,61.8 568.3,60.7 576,60.4 C583.7,60.2 591.3,60.3 599,60.5 C606.7,60.8 614.3,62.1 622,61.8 C629.7,61.5 637.3,59.1 645,59 C652.7,58.9 660.3,61.2 668,61.1 C675.7,61 683.3,58.3 691,58.5 C698.7,58.6 706.3,61.5 714,62.1 C721.7,62.6 729.3,62.1 737,61.6 C744.7,61.2 756,56 760,59.3 C764,62.7 760.8,74.3 760.9,81.7 C761.1,89 760.8,96.1 760.8,103.3 C760.8,110.6 761.1,117.8 761.1,125 C761,132.2 760.4,139.4 760.5,146.7 C760.6,153.9 762.2,161.1 761.7,168.3 C761.3,175.6 758.1,182.8 757.9,190 C757.7,197.2 760.5,204.4 760.6,211.7 C760.6,218.9 758.6,226.1 758.4,233.3 C758.3,240.6 759,247.8 759.6,255 C760.2,262.2 761.7,269.4 762,276.7 C762.4,283.9 761.9,291.1 761.7,298.3 C761.6,305.6 765.1,316 761,320 C756.8,324 744.8,322.4 737,322.1 C729.2,321.8 721.7,318.5 714,318.2 C706.3,318 698.7,320.1 691,320.5 C683.3,320.9 675.7,321.1 668,320.8 C660.3,320.5 652.7,319.2 645,318.8 C637.3,318.4 629.7,318.1 622,318.4 C614.3,318.6 606.7,320.4 599,320.3 C591.3,320.3 583.7,318.1 576,318.1 C568.3,318.1 560.7,320 553,320.2 C545.3,320.5 533.8,323.1 530,319.5 C526.2,315.8 530.3,305.5 530.4,298.3 C530.5,291.2 530.5,283.9 530.5,276.7 C530.6,269.4 530.9,262.2 530.8,255 C530.8,247.8 530.6,240.6 530.2,233.3 C529.8,226.1 528.3,218.9 528.2,211.7 C528.1,204.4 529.7,197.2 529.8,190 C529.9,182.8 528.8,175.6 529,168.3 C529.2,161.1 530.7,153.9 531.1,146.7 C531.6,139.4 531.7,132.2 531.8,125 C531.9,117.8 531.9,110.6 531.8,103.3 C531.7,96.1 531.6,88.6 531.3,81.7 C531,74.7 526.4,64.7 530,61.4Z" fill="#fff" opacity="0.85" transform="translate(1.5,-0.4)"/>
<path d="M530,61.4 C533.6,58.2 545.3,62.1 553,61.9 C560.7,61.8 568.3,60.7 576,60.4 C583.7,60.2 591.3,60.3 599,60.5 C606.7,60.8 614.3,62.1 622,61.8 C629.7,61.5 637.3,59.1 645,59 C652.7,58.9 660.3,61.2 668,61.1 C675.7,61 683.3,58.3 691,58.5 C698.7,58.6 706.3,61.5 714,62.1 C721.7,62.6 729.3,62.1 737,61.6 C744.7,61.2 756,56 760,59.3 C764,62.7 760.8,74.3 760.9,81.7 C761.1,89 760.8,96.1 760.8,103.3 C760.8,110.6 761.1,117.8 761.1,125 C761,132.2 760.4,139.4 760.5,146.7 C760.6,153.9 762.2,161.1 761.7,168.3 C761.3,175.6 758.1,182.8 757.9,190 C757.7,197.2 760.5,204.4 760.6,211.7 C760.6,218.9 758.6,226.1 758.4,233.3 C758.3,240.6 759,247.8 759.6,255 C760.2,262.2 761.7,269.4 762,276.7 C762.4,283.9 761.9,291.1 761.7,298.3 C761.6,305.6 765.1,316 761,320 C756.8,324 744.8,322.4 737,322.1 C729.2,321.8 721.7,318.5 714,318.2 C706.3,318 698.7,320.1 691,320.5 C683.3,320.9 675.7,321.1 668,320.8 C660.3,320.5 652.7,319.2 645,318.8 C637.3,318.4 629.7,318.1 622,318.4 C614.3,318.6 606.7,320.4 599,320.3 C591.3,320.3 583.7,318.1 576,318.1 C568.3,318.1 560.7,320 553,320.2 C545.3,320.5 533.8,323.1 530,319.5 C526.2,315.8 530.3,305.5 530.4,298.3 C530.5,291.2 530.5,283.9 530.5,276.7 C530.6,269.4 530.9,262.2 530.8,255 C530.8,247.8 530.6,240.6 530.2,233.3 C529.8,226.1 528.3,218.9 528.2,211.7 C528.1,204.4 529.7,197.2 529.8,190 C529.9,182.8 528.8,175.6 529,168.3 C529.2,161.1 530.7,153.9 531.1,146.7 C531.6,139.4 531.7,132.2 531.8,125 C531.9,117.8 531.9,110.6 531.8,103.3 C531.7,96.1 531.6,88.6 531.3,81.7 C531,74.7 526.4,64.7 530,61.4Z" fill="none" stroke="#2B2B2B" stroke-width="5" stroke-linecap="round" stroke-linejoin="round"/>
<path d="M548,78.5 C551.6,78.9 562.4,80.6 569.6,80.8 C576.8,81 583.9,80.2 591.1,79.9 C598.3,79.7 605.5,79.2 612.7,79.4 C619.9,79.5 627.1,80.8 634.2,80.9 C641.4,81 648.6,80.3 655.8,80.2 C663,80 670.2,80.4 677.4,80 C684.5,79.7 691.7,78.6 698.9,78.2 C706.1,77.8 713.3,77.8 720.4,77.6 C727.6,77.4 738.4,77 742,76.9" fill="none" stroke="#8EC9F0" stroke-width="22" stroke-linecap="round" stroke-linejoin="round"/>
<path d="M548,106 C551.6,106.1 562.4,106.6 569.6,106.4 C576.8,106.2 583.9,105.1 591.1,104.8 C598.3,104.5 605.5,104.8 612.7,104.6 C619.9,104.4 627,103.7 634.2,103.5 C641.4,103.4 648.6,103.7 655.8,103.4 C663,103.2 670.1,102 677.3,101.9 C684.5,101.7 691.7,102.6 698.9,102.7 C706.1,102.9 713.3,103 720.5,102.8 C727.6,102.6 738.4,101.8 742,101.6" fill="none" stroke="#8EC9F0" stroke-width="22" stroke-linecap="round" stroke-linejoin="round"/>
<path d="M548,130.3 C551.6,130.3 562.4,130.2 569.6,130.1 C576.7,130 583.9,129.9 591.1,129.8 C598.3,129.7 605.5,129.4 612.7,129.3 C619.9,129.1 627,129.2 634.2,129 C641.4,128.8 648.6,127.8 655.8,128.1 C663,128.4 670.1,130.7 677.3,130.8 C684.5,130.9 691.7,129.1 698.9,128.7 C706.1,128.3 713.3,128.3 720.4,128.5 C727.6,128.6 738.4,129.5 742,129.7" fill="none" stroke="#8EC9F0" stroke-width="22" stroke-linecap="round" stroke-linejoin="round"/>
<path d="M548,155.2 C551.6,155 562.4,154.1 569.6,154 C576.8,153.9 584,154.3 591.1,154.6 C598.3,154.9 605.5,155.5 612.7,155.6 C619.9,155.8 627.1,155.3 634.2,155.4 C641.4,155.6 648.6,156.1 655.8,156.4 C663,156.7 670.2,157 677.3,157.2 C684.5,157.5 691.7,158.2 698.9,158 C706.1,157.8 713.3,156 720.5,156.1 C727.7,156.2 738.4,158.1 742,158.6" fill="none" stroke="#8EC9F0" stroke-width="22" stroke-linecap="round" stroke-linejoin="round"/>
<path d="M548,180.9 C551.6,181.1 562.4,181.7 569.6,181.8 C576.7,181.8 583.9,181.8 591.1,181.3 C598.3,180.9 605.5,179.7 612.7,179.1 C619.9,178.6 627,178.2 634.2,178 C641.4,177.9 648.6,177.8 655.8,178.2 C663,178.7 670.1,180.5 677.3,180.8 C684.5,181 691.7,179.8 698.9,179.7 C706.1,179.6 713.3,180 720.4,180.2 C727.6,180.4 738.4,180.8 742,180.9" fill="none" stroke="#8EC9F0" stroke-width="22" stroke-linecap="round" stroke-linejoin="round"/>
<path d="M548,205 C551.6,205.3 562.4,206.5 569.6,206.6 C576.8,206.8 583.9,205.9 591.1,205.8 C598.3,205.6 605.5,205.9 612.7,205.7 C619.9,205.4 627,204.7 634.2,204.3 C641.4,203.8 648.6,203.5 655.8,203.1 C663,202.6 670.1,201.3 677.3,201.5 C684.5,201.7 691.7,203.9 698.9,204.4 C706.1,204.9 713.3,205 720.5,204.5 C727.6,204 738.4,201.8 742,201.3" fill="none" stroke="#8EC9F0" stroke-width="22" stroke-linecap="round" stroke-linejoin="round"/>
<path d="M548,228.9 C551.6,229.5 562.4,232.2 569.5,232.3 C576.7,232.4 583.9,229.8 591.1,229.5 C598.3,229.3 605.5,230.7 612.7,231 C619.8,231.3 627,231.8 634.2,231.4 C641.4,231 648.6,228.6 655.8,228.8 C663,229.1 670.1,232.3 677.3,232.9 C684.5,233.5 691.7,232.4 698.9,232.4 C706.1,232.3 713.2,232.7 720.4,232.8 C727.6,232.8 738.4,232.8 742,232.8" fill="none" stroke="#8EC9F0" stroke-width="22" stroke-linecap="round" stroke-linejoin="round"/>
<path d="M548,254.6 C551.6,254.6 562.4,254.2 569.6,254.1 C576.8,254 584,253.1 591.1,253.8 C598.3,254.5 605.4,257.9 612.6,258.2 C619.8,258.4 627.1,255.3 634.2,255.1 C641.4,255 648.6,257.1 655.8,257.4 C662.9,257.7 670.1,256.9 677.3,256.8 C684.5,256.7 691.7,256.6 698.9,256.7 C706.1,256.8 713.3,257.3 720.4,257.4 C727.6,257.6 738.4,257.5 742,257.6" fill="none" stroke="#8EC9F0" stroke-width="22" stroke-linecap="round" stroke-linejoin="round"/>
<path d="M548,280.6 C551.6,280.5 562.4,280.5 569.6,280.3 C576.7,280.1 584,278.9 591.1,279.2 C598.3,279.5 605.5,281.7 612.7,282 C619.8,282.4 627,281.8 634.2,281.5 C641.4,281.2 648.6,280.4 655.8,280.3 C663,280.1 670.2,280.4 677.4,280.5 C684.6,280.5 691.8,280 698.9,280.6 C706.1,281.2 713.2,283.7 720.4,284 C727.6,284.3 738.4,282.6 742,282.3" fill="none" stroke="#8EC9F0" stroke-width="22" stroke-linecap="round" stroke-linejoin="round"/>
<text x="645" y="370" font-family="'Comic Sans MS','Segoe Print','Chalkboard SE','Marker Felt','Hiragino Maru Gothic ProN','Yu Gothic',cursive" font-size="26" font-weight="700" fill="#3F7BE0" text-anchor="middle" transform="rotate(-0.5 645 370)">3回目</text>
<text x="645" y="405" font-family="'Comic Sans MS','Segoe Print','Chalkboard SE','Marker Felt','Hiragino Maru Gothic ProN','Yu Gothic',cursive" font-size="20" font-weight="700" fill="#9E9E9E" text-anchor="middle" transform="rotate(0.3 645 405)">会話で出会う</text>
<path d="M272,188.8 C273.5,189.1 278,190.2 281,190.1 C284,190.1 288.5,188.9 290,188.7" fill="none" stroke="#9E9E9E" stroke-width="4" stroke-linecap="round" stroke-linejoin="round"/>
<path d="M289.7,189.5 C288.2,190.5 283.5,193.4 280.4,195.3 C277.2,197.2 272.5,200.1 271,201.1" fill="none" stroke="#9E9E9E" stroke-width="4" stroke-linecap="round" stroke-linejoin="round"/>
<path d="M290.4,189.4 C288.8,188.3 284.6,184.7 281.2,183.1 C277.9,181.6 272.1,180.7 270.3,180.2" fill="none" stroke="#9E9E9E" stroke-width="4" stroke-linecap="round" stroke-linejoin="round"/>
<path d="M517,189.5 C518.5,189.9 523,191.8 526,191.9 C529,192.1 533.5,190.6 535,190.4" fill="none" stroke="#9E9E9E" stroke-width="4" stroke-linecap="round" stroke-linejoin="round"/>
<path d="M535.3,190.6 C533.6,191.2 528.2,192.8 524.9,194.4 C521.6,196.1 517.2,199.5 515.7,200.5" fill="none" stroke="#9E9E9E" stroke-width="4" stroke-linecap="round" stroke-linejoin="round"/>
<path d="M535.4,189.3 C533.6,188.7 528.2,187.1 524.9,185.6 C521.5,184.2 516.7,181.5 515,180.7" fill="none" stroke="#9E9E9E" stroke-width="4" stroke-linecap="round" stroke-linejoin="round"/>
<path d="M40.5,439.2 C40.2,441.2 39.1,447.2 39.1,451.1 C39.1,455.1 40.3,461 40.5,463" fill="none" stroke="#2B2B2B" stroke-width="5" stroke-linecap="round" stroke-linejoin="round"/>
<path d="M39.5,462.8 C38.9,464.3 37.5,469.1 36.4,472.2 C35.3,475.3 33.3,479.9 32.6,481.4" fill="none" stroke="#2B2B2B" stroke-width="5" stroke-linecap="round" stroke-linejoin="round"/>
<path d="M40.9,462.6 C41.3,464.2 42.3,469.2 43.5,472.3 C44.7,475.4 47.3,479.6 48.1,481.1" fill="none" stroke="#2B2B2B" stroke-width="5" stroke-linecap="round" stroke-linejoin="round"/>
<path d="M41.2,445 C39.8,443.6 35.5,439.5 33,436.5 C30.5,433.6 27.3,428.7 26.1,427.2" fill="none" stroke="#2B2B2B" stroke-width="5" stroke-linecap="round" stroke-linejoin="round"/>
<path d="M38.8,445 C40,443.5 43.6,438.9 45.8,435.7 C48,432.5 51.1,427.6 52.2,426" fill="none" stroke="#2B2B2B" stroke-width="5" stroke-linecap="round" stroke-linejoin="round"/>
<path d="M35.8,421.7 C36.9,421.3 38.1,420.9 39.3,420.8 C40.5,420.7 41.8,420.8 42.9,421.2 C44,421.6 44.9,422.5 45.8,423.3 C46.7,424 47.6,424.8 48.2,425.9 C48.8,426.9 49.3,428.1 49.3,429.3 C49.4,430.5 49,431.7 48.7,432.9 C48.4,434 48.1,435.4 47.4,436.4 C46.6,437.3 45.3,437.9 44.2,438.4 C43.1,438.9 41.9,439.3 40.7,439.5 C39.5,439.6 38.1,439.7 36.9,439.3 C35.8,438.9 34.7,438 33.9,437.1 C33,436.3 32.3,435.2 31.8,434.1 C31.2,433.1 30.7,431.9 30.6,430.7 C30.6,429.5 31.3,428.4 31.6,427.2 C31.9,426.1 32,424.6 32.7,423.7 C33.4,422.8 34.7,422.2 35.8,421.7Z" fill="#FFE3C4" opacity="0.85" transform="translate(1.2,3.2)"/>
<path d="M35.8,421.7 C36.4,421.6 38.1,420.9 39.3,420.8 C40.5,420.7 41.8,420.8 42.9,421.2 C44,421.6 44.9,422.5 45.8,423.3 C46.7,424 47.6,424.8 48.2,425.9 C48.8,426.9 49.3,428.1 49.3,429.3 C49.4,430.5 49,431.7 48.7,432.9 C48.4,434 48.1,435.4 47.4,436.4 C46.6,437.3 45.3,437.9 44.2,438.4 C43.1,438.9 41.9,439.3 40.7,439.5 C39.5,439.6 38.1,439.7 36.9,439.3 C35.8,438.9 34.7,438 33.9,437.1 C33,436.3 32.3,435.2 31.8,434.1 C31.2,433.1 30.7,431.9 30.6,430.7 C30.6,429.5 31.3,428.4 31.6,427.2 C31.9,426.1 32,424.7 32.7,423.7 C33.3,422.7 34.6,422 35.7,421.4 C36.8,420.9 38.1,420.5 39.3,420.4 C40.5,420.3 41.8,420.5 43,420.9 C44.2,421.3 45.7,422.4 46.3,422.7" fill="none" stroke="#2B2B2B" stroke-width="5" stroke-linecap="round" stroke-linejoin="round"/>
<path d="M30.7,423.1 C31.8,422.2 34.8,418 37,418 C39.2,418 42.3,423.2 43.9,423.1 C45.5,423.1 46,417.5 46.5,417.7 C47.1,417.9 47.2,423.2 47.3,424.3" fill="none" stroke="#2B2B2B" stroke-width="6" stroke-linecap="round" stroke-linejoin="round"/>
<circle cx="37.3" cy="428.1" r="1.155" fill="#2B2B2B"/>
<circle cx="43.7" cy="428.1" r="1.155" fill="#2B2B2B"/>
<path d="M35.2,433.2 C36.2,433.4 39.3,434.8 40.9,434.5 C42.6,434.2 44.3,431.8 44.9,431.3" fill="none" stroke="#2B2B2B" stroke-width="3.5" stroke-linecap="round" stroke-linejoin="round"/>
<path d="M53.2,427.1 C54.6,424.6 58.9,417.3 61.4,412.2 C63.8,407.1 66.8,399 67.9,396.4" fill="none" stroke="#A0662D" stroke-width="5" stroke-linecap="round" stroke-linejoin="round"/>
<path d="M61,388.1 C62.7,387.1 67,387.3 70,387.1 C73,386.8 77.2,385.6 79,386.6 C80.8,387.6 81.1,390.9 80.9,393 C80.7,395.1 79.7,398.2 77.9,399 C76.1,399.8 72.8,398 70,397.9 C67.2,397.7 62.7,398.7 61,397.9 C59.3,397.1 59.7,394.6 59.7,393 C59.7,391.4 59.3,389.1 61,388.1Z" fill="#8EC9F0" opacity="0.85" transform="translate(2.1,-3.9)"/>
<path d="M61,388.1 C62.7,387.1 67,387.3 70,387.1 C73,386.8 77.2,385.6 79,386.6 C80.8,387.6 81.1,390.9 80.9,393 C80.7,395.1 79.7,398.2 77.9,399 C76.1,399.8 72.8,398 70,397.9 C67.2,397.7 62.7,398.7 61,397.9 C59.3,397.1 59.7,394.6 59.7,393 C59.7,391.4 59.3,389.1 61,388.1Z" fill="none" stroke="#2B2B2B" stroke-width="3" stroke-linecap="round" stroke-linejoin="round"/>
<text x="430" y="465" font-family="'Comic Sans MS','Segoe Print','Chalkboard SE','Marker Felt','Hiragino Maru Gothic ProN','Yu Gothic',cursive" font-size="22" font-weight="700" fill="#9E9E9E" text-anchor="middle" transform="rotate(0 430 465)">わからない所は、次の層で塗ればいい</text>
</g>
</svg>
