<svg xmlns="http://www.w3.org/2000/svg" viewBox="0 0 800 500" width="800" height="500">
<defs><filter id="crayon"><feTurbulence type="fractalNoise" baseFrequency="0.035" numOctaves="2" seed="54"/><feDisplacementMap in="SourceGraphic" scale="3.5"/></filter></defs>
<rect width="800" height="500" fill="#ffffff"/>
<g filter="url(#crayon)">
<text x="200" y="70" font-family="'Comic Sans MS','Segoe Print','Chalkboard SE','Marker Felt','Hiragino Maru Gothic ProN','Yu Gothic',cursive" font-size="40" font-weight="700" fill="#3F7BE0" text-anchor="middle" transform="rotate(0.5 200 70)">think</text>
<path d="M199.2,218 C199.1,222 198.9,234 199,242 C199,250 199.3,258 199.4,266 C199.6,274 199.8,286 199.8,290" fill="none" stroke="#2B2B2B" stroke-width="5" stroke-linecap="round" stroke-linejoin="round"/>
<path d="M200.1,290 C198.6,293 193.8,301.8 191.3,308 C188.9,314.2 187.9,321.1 185.2,327.2 C182.6,333.3 177,341.8 175.3,344.7" fill="none" stroke="#2B2B2B" stroke-width="5" stroke-linecap="round" stroke-linejoin="round"/>
<path d="M200.9,289.6 C202.3,292.6 206.6,301.7 209.1,307.9 C211.6,314 213.3,320.6 215.9,326.7 C218.4,332.9 223.2,341.7 224.6,344.7" fill="none" stroke="#2B2B2B" stroke-width="5" stroke-linecap="round" stroke-linejoin="round"/>
<path d="M199.8,237.8 C197.1,241.2 189.2,251.7 183.5,258.4 C177.8,265.1 168.8,274.6 165.8,277.8" fill="none" stroke="#2B2B2B" stroke-width="5" stroke-linecap="round" stroke-linejoin="round"/>
<path d="M200.8,237.3 C203.3,241 210,252.5 215.6,259.2 C221.3,265.8 231.5,274.4 234.7,277.4" fill="none" stroke="#2B2B2B" stroke-width="5" stroke-linecap="round" stroke-linejoin="round"/>
<path d="M184.9,166.7 C188.1,164.7 191.2,162 194.8,161.2 C198.3,160.4 202.7,160.9 206,162.1 C209.4,163.3 212.1,166.2 215,168.3 C217.9,170.5 221.6,172.1 223.4,174.9 C225.3,177.7 225.6,181.8 226.1,185.2 C226.7,188.7 227,192.2 226.7,195.8 C226.3,199.3 225.9,203.5 224.1,206.7 C222.4,209.9 219.2,213.1 216.1,214.9 C212.9,216.7 208.7,217.1 205,217.6 C201.3,218.1 197.6,218.6 193.9,218 C190.3,217.5 186,216.5 183.2,214.2 C180.5,212 179.3,207.7 177.4,204.5 C175.6,201.4 173.3,198.5 172.2,195.1 C171.2,191.6 170.6,187.4 171.2,183.8 C171.8,180.1 173.4,176.1 175.7,173.2 C178,170.4 181.8,168.7 184.9,166.7Z" fill="#FFE3C4" opacity="0.85" transform="translate(4,2.8)"/>
<path d="M184.9,166.7 C186.6,165.7 191.2,162 194.8,161.2 C198.3,160.4 202.7,160.9 206,162.1 C209.4,163.3 212.1,166.2 215,168.3 C217.9,170.5 221.6,172.1 223.4,174.9 C225.3,177.7 225.6,181.8 226.1,185.2 C226.7,188.7 227,192.2 226.7,195.8 C226.3,199.3 225.9,203.5 224.1,206.7 C222.4,209.9 219.2,213.1 216.1,214.9 C212.9,216.7 208.7,217.1 205,217.6 C201.3,218.1 197.6,218.6 193.9,218 C190.3,217.5 186,216.5 183.2,214.2 C180.5,212 179.3,207.7 177.4,204.5 C175.6,201.4 173.3,198.5 172.2,195.1 C171.2,191.6 170.6,187.4 171.2,183.8 C171.8,180.1 173.6,176.2 175.7,173.2 C177.9,170.2 181,167.5 184.2,165.5 C187.4,163.6 191.1,162 194.8,161.4 C198.4,160.7 202.5,160.8 206.1,161.5 C209.8,162.3 214.8,165.3 216.6,166.1" fill="none" stroke="#2B2B2B" stroke-width="5" stroke-linecap="round" stroke-linejoin="round"/>
<circle cx="189.5" cy="185.4" r="3.5" fill="#2B2B2B"/>
<circle cx="210.5" cy="186" r="3.5" fill="#2B2B2B"/>
<path d="M188.4,203.1 C192.3,203.2 208,203.7 211.9,203.8" fill="none" stroke="#2B2B2B" stroke-width="3.5" stroke-linecap="round" stroke-linejoin="round"/>
<path d="M242.2,117.1 C241.1,121.5 238.1,134.7 236,143.5 C233.8,152.3 227.5,167.9 229.1,169.8 C230.8,171.7 240.2,159.8 245.7,154.9 C251.2,150.1 259.4,143.2 262.2,140.8" fill="#fff" opacity="0.85" transform="translate(-1.4,-1.7)"/>
<path d="M242.2,117.1 C241.1,121.5 238.1,134.7 236,143.5 C233.8,152.3 227.5,167.9 229.1,169.8 C230.8,171.7 240.2,159.8 245.7,154.9 C251.2,150.1 259.4,143.2 262.2,140.8" fill="none" stroke="#9E9E9E" stroke-width="4" stroke-linecap="round" stroke-linejoin="round"/>
<path d="M246.4,134.7 C239.7,131.4 234.1,127.5 229.8,123.3 C225.5,119.2 221,114.4 220.5,109.8 C220.1,105.2 222.4,99.7 227,95.7 C231.7,91.6 241,88.7 248.3,85.6 C255.6,82.4 262.3,78.6 271,76.8 C279.7,74.9 291,74.1 300.5,74.4 C309.9,74.8 318.9,77.3 327.9,79 C337,80.8 348,81.7 354.8,84.7 C361.7,87.7 365.7,92.6 369,96.9 C372.4,101.1 374.3,105.6 374.9,110.2 C375.5,114.8 376.1,120.1 372.5,124.3 C369,128.5 361.1,132.4 353.7,135.4 C346.3,138.3 337,140.7 328,142.1 C319,143.4 309.2,143.3 299.6,143.5 C289.9,143.7 278.9,144.7 270,143.2 C261.1,141.8 253.1,138 246.4,134.7Z" fill="#fff" opacity="0.85" transform="translate(-3.1,-2)"/>
<path d="M246.4,134.7 C243.6,132.8 234.1,127.5 229.8,123.3 C225.5,119.2 221,114.4 220.5,109.8 C220.1,105.2 222.4,99.7 227,95.7 C231.7,91.6 241,88.7 248.3,85.6 C255.6,82.4 262.3,78.6 271,76.8 C279.7,74.9 291,74.1 300.5,74.4 C309.9,74.8 318.9,77.3 327.9,79 C337,80.8 348,81.7 354.8,84.7 C361.7,87.7 365.7,92.6 369,96.9 C372.4,101.1 374.3,105.6 374.9,110.2 C375.5,114.8 376.1,120.1 372.5,124.3 C369,128.5 361.1,132.4 353.7,135.4 C346.3,138.3 337,140.7 328,142.1 C319,143.4 309.2,143.3 299.6,143.5 C289.9,143.7 279.2,144.6 270,143.2 C260.8,141.9 251.6,138.8 244.5,135.6 C237.5,132.3 231.5,128 227.8,123.7 C224,119.4 221.9,114.4 222,109.8 C222.1,105.1 227.1,98.2 228.1,95.9" fill="none" stroke="#9E9E9E" stroke-width="4" stroke-linecap="round" stroke-linejoin="round"/>
<text x="300" y="118.4" font-family="'Comic Sans MS','Segoe Print','Chalkboard SE','Marker Felt','Hiragino Maru Gothic ProN','Yu Gothic',cursive" font-size="24" font-weight="700" fill="#2B2B2B" text-anchor="middle" transform="rotate(1 300 118.4)">考えた!</text>
<text x="200" y="430" font-family="'Comic Sans MS','Segoe Print','Chalkboard SE','Marker Felt','Hiragino Maru Gothic ProN','Yu Gothic',cursive" font-size="28" font-weight="700" fill="#2B2B2B" text-anchor="middle" transform="rotate(-1.8 200 430)">頭で考えて思う</text>
<path d="M399.8,90 C399.9,93.7 400,104.9 400.3,112.4 C400.5,119.8 401.5,127.3 401.3,134.7 C401,142.2 398.7,149.6 398.8,157.1 C399,164.5 401.7,172 402.1,179.4 C402.6,186.9 401.9,194.3 401.5,201.8 C401.1,209.2 400.4,216.7 399.8,224.1 C399.3,231.6 397.9,239 398,246.5 C398.1,253.9 400.2,261.4 400.5,268.8 C400.8,276.3 400.1,283.7 400,291.2 C399.8,298.6 399.3,306.1 399.6,313.5 C399.9,321 401.7,328.4 401.7,335.9 C401.7,343.3 399.9,350.8 399.7,358.2 C399.4,365.7 400.3,373.1 400.1,380.6 C400,388 398.6,395.5 398.7,402.9 C398.9,410.4 400.5,417.8 401,425.3 C401.6,432.7 402,440.2 401.9,447.6 C401.8,455.1 400.7,466.3 400.4,470" fill="none" stroke="#9E9E9E" stroke-width="3" stroke-linecap="round" stroke-linejoin="round"/>
<text x="600" y="70" font-family="'Comic Sans MS','Segoe Print','Chalkboard SE','Marker Felt','Hiragino Maru Gothic ProN','Yu Gothic',cursive" font-size="40" font-weight="700" fill="#3F7BE0" text-anchor="middle" transform="rotate(0 600 70)">feel</text>
<path d="M601.1,218 C600.6,222 598.4,234 598.1,242 C597.7,250 598.5,258 599,266 C599.4,274 600.4,286 600.7,290" fill="none" stroke="#2B2B2B" stroke-width="5" stroke-linecap="round" stroke-linejoin="round"/>
<path d="M599.7,289.9 C598.1,292.8 592.5,301.3 590.2,307.5 C587.8,313.8 588,321.2 585.6,327.4 C583.2,333.6 577.4,342 575.7,344.9" fill="none" stroke="#2B2B2B" stroke-width="5" stroke-linecap="round" stroke-linejoin="round"/>
<path d="M601.2,289.5 C602.1,292.7 604.4,302.6 607,308.8 C609.6,314.9 614.4,320.1 617,326.2 C619.7,332.3 621.9,342.3 622.9,345.5" fill="none" stroke="#2B2B2B" stroke-width="5" stroke-linecap="round" stroke-linejoin="round"/>
<path d="M600,238 C604,239.7 616.3,244.2 623.9,248.3 C631.5,252.3 642.1,260.1 645.8,262.4" fill="none" stroke="#2B2B2B" stroke-width="5" stroke-linecap="round" stroke-linejoin="round"/>
<path d="M599.8,238.6 C604,239.7 616.6,242.8 625,245.1 C633.3,247.4 645.7,251.2 649.9,252.4" fill="none" stroke="#2B2B2B" stroke-width="5" stroke-linecap="round" stroke-linejoin="round"/>
<path d="M592.2,163.2 C595.5,162 599.5,161.3 603.1,161.6 C606.7,161.9 610.8,162.9 613.8,164.8 C616.8,166.7 618.9,170.1 621.3,172.9 C623.7,175.7 627.3,178.4 628.3,181.7 C629.4,185.1 628,189.3 627.6,193 C627.2,196.7 627.4,201 625.7,204 C623.9,207.1 620.3,209.3 617.3,211.5 C614.3,213.7 611.3,216 607.9,217.1 C604.5,218.2 600.6,218.5 596.9,218.2 C593.3,217.9 589.3,217.1 586.1,215.4 C583,213.6 580.1,210.6 578.1,207.6 C576,204.7 574.6,201.1 573.8,197.7 C572.9,194.3 572.9,190.7 573.1,187.1 C573.3,183.5 573.1,179.3 574.8,176.2 C576.4,173.1 580,170.9 582.9,168.7 C585.8,166.6 588.8,164.4 592.2,163.2Z" fill="#FFE3C4" opacity="0.85" transform="translate(1.4,1)"/>
<path d="M592.2,163.2 C594,162.9 599.5,161.3 603.1,161.6 C606.7,161.9 610.8,162.9 613.8,164.8 C616.8,166.7 618.9,170.1 621.3,172.9 C623.7,175.7 627.3,178.4 628.3,181.7 C629.4,185.1 628,189.3 627.6,193 C627.2,196.7 627.4,201 625.7,204 C623.9,207.1 620.3,209.3 617.3,211.5 C614.3,213.7 611.3,216 607.9,217.1 C604.5,218.2 600.6,218.5 596.9,218.2 C593.3,217.9 589.3,217.1 586.1,215.4 C583,213.6 580.1,210.6 578.1,207.6 C576,204.7 574.6,201.1 573.8,197.7 C572.9,194.3 572.9,190.7 573.1,187.1 C573.3,183.5 573.1,179.3 574.8,176.2 C576.4,173.1 580,171.1 582.9,168.7 C585.7,166.4 588.4,163.3 591.8,162.1 C595.2,160.8 599.4,160.6 603.1,161 C606.8,161.5 610.7,162.7 614,164.5 C617.2,166.2 621.2,170.5 622.7,171.7" fill="none" stroke="#2B2B2B" stroke-width="5" stroke-linecap="round" stroke-linejoin="round"/>
<circle cx="589.3" cy="185.5" r="3.5" fill="#2B2B2B"/>
<circle cx="609.5" cy="187" r="3.5" fill="#2B2B2B"/>
<path d="M587.9,203.8 C589.2,203.3 592.8,200.2 595.4,200.6 C598.1,201 601.6,206.2 604.1,206.2 C606.5,206.1 609.2,201.4 610.2,200.4" fill="none" stroke="#2B2B2B" stroke-width="3.5" stroke-linecap="round" stroke-linejoin="round"/>
<path d="M641,116.8 C640,121.2 636.7,134.4 634.7,143.2 C632.7,152.1 627.1,167.6 629.1,169.8 C631.2,172 641.4,161.2 647.1,156.6 C652.8,151.9 660.4,144.3 663.1,141.8" fill="#fff" opacity="0.85" transform="translate(1.3,-3.9)"/>
<path d="M641,116.8 C640,121.2 636.7,134.4 634.7,143.2 C632.7,152.1 627.1,167.6 629.1,169.8 C631.2,172 641.4,161.2 647.1,156.6 C652.8,151.9 660.4,144.3 663.1,141.8" fill="none" stroke="#FF8FA3" stroke-width="4" stroke-linecap="round" stroke-linejoin="round"/>
<path d="M624.3,104.3 C627,99.9 633.9,96.1 639.6,92.6 C645.3,89.1 651.1,85.5 658.5,83.1 C665.8,80.7 674.8,79.5 683.8,78 C692.8,76.4 703.7,73 712.7,73.6 C721.6,74.2 730.1,78.8 737.6,81.6 C745.2,84.4 752.1,87.1 758,90.5 C763.8,93.9 770.4,97.8 772.7,102 C775,106.2 773.7,111.2 771.7,115.4 C769.6,119.7 764.7,123.4 760.5,127.5 C756.3,131.6 753.5,137.1 746.4,140 C739.2,143 727.4,144.6 717.7,145.1 C708.1,145.6 697.6,144.3 688.5,143.1 C679.3,141.9 671.1,140.2 662.7,138.1 C654.4,136.1 644.8,134 638.2,130.8 C631.7,127.5 625.8,122.8 623.4,118.4 C621.1,114 621.6,108.6 624.3,104.3Z" fill="#fff" opacity="0.85" transform="translate(-2.4,2.1)"/>
<path d="M624.3,104.3 C626.8,102.3 633.9,96.1 639.6,92.6 C645.3,89.1 651.1,85.5 658.5,83.1 C665.8,80.7 674.8,79.5 683.8,78 C692.8,76.4 703.7,73 712.7,73.6 C721.6,74.2 730.1,78.8 737.6,81.6 C745.2,84.4 752.1,87.1 758,90.5 C763.8,93.9 770.4,97.8 772.7,102 C775,106.2 773.7,111.2 771.7,115.4 C769.6,119.7 764.7,123.4 760.5,127.5 C756.3,131.6 753.5,137.1 746.4,140 C739.2,143 727.4,144.6 717.7,145.1 C708.1,145.6 697.6,144.3 688.5,143.1 C679.3,141.9 671.1,140.2 662.7,138.1 C654.4,136.1 644.8,134 638.2,130.8 C631.7,127.5 626,122.9 623.4,118.4 C620.9,114 621.3,108.8 623,104.2 C624.7,99.6 628.4,94.8 633.7,90.9 C638.9,86.9 646.3,83.2 654.4,80.5 C662.5,77.8 677.5,75.6 682.1,74.6" fill="none" stroke="#FF8FA3" stroke-width="4" stroke-linecap="round" stroke-linejoin="round"/>
<text x="700" y="117.7" font-family="'Comic Sans MS','Segoe Print','Chalkboard SE','Marker Felt','Hiragino Maru Gothic ProN','Yu Gothic',cursive" font-size="22" font-weight="700" fill="#2B2B2B" text-anchor="middle" transform="rotate(1.8 700 117.7)">なんとなく…</text>
<text x="600" y="430" font-family="'Comic Sans MS','Segoe Print','Chalkboard SE','Marker Felt','Hiragino Maru Gothic ProN','Yu Gothic',cursive" font-size="28" font-weight="700" fill="#2B2B2B" text-anchor="middle" transform="rotate(1.2 600 430)">なんとなく、気がする</text>
</g>
</svg>
