<svg xmlns="http://www.w3.org/2000/svg" viewBox="0 0 800 500" width="800" height="500">
<defs><filter id="crayon"><feTurbulence type="fractalNoise" baseFrequency="0.035" numOctaves="2" seed="33"/><feDisplacementMap in="SourceGraphic" scale="3.5"/></filter></defs>
<rect width="800" height="500" fill="#ffffff"/>
<g filter="url(#crayon)">
<path d="M260,98.6 C263.9,94.7 275,99 282.5,99.2 C290,99.4 297.5,99.4 305,99.9 C312.5,100.3 320,102 327.5,101.8 C335,101.6 342.5,99.2 350,98.6 C357.5,97.9 365,97.9 372.5,97.9 C380,97.9 387.5,98.5 395,98.5 C402.5,98.5 410,97.4 417.5,97.9 C425,98.4 432.5,101.5 440,101.5 C447.5,101.5 455,98.2 462.5,98 C470,97.8 477.5,100.1 485,100.2 C492.5,100.3 500,98.3 507.5,98.5 C515,98.6 522.5,100.5 530,100.9 C537.5,101.4 545,100.9 552.5,101 C560,101.2 567.5,102.4 575,102 C582.5,101.7 590,99.3 597.5,99 C605,98.7 616.6,96.2 620,100.2 C623.4,104.2 617.8,115.4 618.1,123 C618.4,130.6 621.6,138.3 621.6,146 C621.6,153.7 618.4,161.3 618,169 C617.6,176.7 618.7,184.3 619.4,192 C620,199.7 622,207.3 621.8,215 C621.7,222.7 618.8,230.3 618.5,238 C618.3,245.7 620.4,253.3 620.6,261 C620.8,268.7 620.1,276.3 619.7,284 C619.3,291.7 617.9,299.3 618.2,307 C618.5,314.7 624.9,326.1 621.5,330 C618,333.9 605.2,330.4 597.5,330.4 C589.8,330.4 582.5,329.9 575,330 C567.5,330.1 560,330.8 552.5,331 C545,331.2 537.5,331.4 530,331.2 C522.5,330.9 515,329.4 507.5,329.5 C500,329.5 492.5,331.5 485,331.4 C477.5,331.3 470,329.3 462.5,328.8 C455,328.4 447.5,328.4 440,328.6 C432.5,328.9 425,330 417.5,330.4 C410,330.9 402.5,331.8 395,331.3 C387.5,330.9 380,328.1 372.5,327.8 C365,327.6 357.5,329.7 350,329.8 C342.5,329.9 335,328.3 327.5,328.3 C320,328.3 312.5,329.2 305,329.6 C297.5,330 290,330.4 282.5,330.8 C275,331.1 263.8,335.4 260,331.4 C256.2,327.5 259.9,314.9 259.8,307 C259.7,299.1 260,291.7 259.6,284 C259.3,276.3 257.5,268.7 257.9,261 C258.3,253.3 261.8,245.7 262.2,238 C262.5,230.3 260.4,222.7 260,215 C259.7,207.3 260,199.7 260,192 C260,184.3 259.9,176.7 259.9,169 C259.8,161.3 259.8,153.7 259.7,146 C259.6,138.3 259.2,130.9 259.3,123 C259.3,115.1 256.1,102.6 260,98.6Z" fill="#EEF0F4" opacity="0.85" transform="translate(-4.1,-0.2)"/>
<path d="M260,98.6 C263.9,94.7 275,99 282.5,99.2 C290,99.4 297.5,99.4 305,99.9 C312.5,100.3 320,102 327.5,101.8 C335,101.6 342.5,99.2 350,98.6 C357.5,97.9 365,97.9 372.5,97.9 C380,97.9 387.5,98.5 395,98.5 C402.5,98.5 410,97.4 417.5,97.9 C425,98.4 432.5,101.5 440,101.5 C447.5,101.5 455,98.2 462.5,98 C470,97.8 477.5,100.1 485,100.2 C492.5,100.3 500,98.3 507.5,98.5 C515,98.6 522.5,100.5 530,100.9 C537.5,101.4 545,100.9 552.5,101 C560,101.2 567.5,102.4 575,102 C582.5,101.7 590,99.3 597.5,99 C605,98.7 616.6,96.2 620,100.2 C623.4,104.2 617.8,115.4 618.1,123 C618.4,130.6 621.6,138.3 621.6,146 C621.6,153.7 618.4,161.3 618,169 C617.6,176.7 618.7,184.3 619.4,192 C620,199.7 622,207.3 621.8,215 C621.7,222.7 618.8,230.3 618.5,238 C618.3,245.7 620.4,253.3 620.6,261 C620.8,268.7 620.1,276.3 619.7,284 C619.3,291.7 617.9,299.3 618.2,307 C618.5,314.7 624.9,326.1 621.5,330 C618,333.9 605.2,330.4 597.5,330.4 C589.8,330.4 582.5,329.9 575,330 C567.5,330.1 560,330.8 552.5,331 C545,331.2 537.5,331.4 530,331.2 C522.5,330.9 515,329.4 507.5,329.5 C500,329.5 492.5,331.5 485,331.4 C477.5,331.3 470,329.3 462.5,328.8 C455,328.4 447.5,328.4 440,328.6 C432.5,328.9 425,330 417.5,330.4 C410,330.9 402.5,331.8 395,331.3 C387.5,330.9 380,328.1 372.5,327.8 C365,327.6 357.5,329.7 350,329.8 C342.5,329.9 335,328.3 327.5,328.3 C320,328.3 312.5,329.2 305,329.6 C297.5,330 290,330.4 282.5,330.8 C275,331.1 263.8,335.4 260,331.4 C256.2,327.5 259.9,314.9 259.8,307 C259.7,299.1 260,291.7 259.6,284 C259.3,276.3 257.5,268.7 257.9,261 C258.3,253.3 261.8,245.7 262.2,238 C262.5,230.3 260.4,222.7 260,215 C259.7,207.3 260,199.7 260,192 C260,184.3 259.9,176.7 259.9,169 C259.8,161.3 259.8,153.7 259.7,146 C259.6,138.3 259.2,130.9 259.3,123 C259.3,115.1 256.1,102.6 260,98.6Z" fill="none" stroke="#2B2B2B" stroke-width="5" stroke-linecap="round" stroke-linejoin="round"/>
<path d="M409.1,170 C405.8,171.7 409.2,185 409.6,192.5 C410,200 411.4,207.5 411.4,215 C411.4,222.5 409.9,230 409.7,237.5 C409.5,245 407,258.4 410.2,260 C413.5,261.6 422.5,250.9 429.2,247.4 C436,243.8 443.9,242.3 450.7,238.8 C457.6,235.3 463.6,230.5 470.2,226.6 C476.8,222.8 490.3,219.9 490.4,215.7 C490.5,211.6 477.9,205.5 471,201.9 C464.2,198.3 456.2,197.2 449.2,193.9 C442.3,190.6 436.2,186.1 429.5,182.1 C422.8,178.1 412.4,168.3 409.1,170Z" fill="#E4572E" opacity="0.85" transform="translate(-2.6,-3.7)"/>
<path d="M409.1,170 C405.8,171.7 409.2,185 409.6,192.5 C410,200 411.4,207.5 411.4,215 C411.4,222.5 409.9,230 409.7,237.5 C409.5,245 407,258.4 410.2,260 C413.5,261.6 422.5,250.9 429.2,247.4 C436,243.8 443.9,242.3 450.7,238.8 C457.6,235.3 463.6,230.5 470.2,226.6 C476.8,222.8 490.3,219.9 490.4,215.7 C490.5,211.6 477.9,205.5 471,201.9 C464.2,198.3 456.2,197.2 449.2,193.9 C442.3,190.6 436.2,186.1 429.5,182.1 C422.8,178.1 412.4,168.3 409.1,170Z" fill="none" stroke="#2B2B2B" stroke-width="4" stroke-linecap="round" stroke-linejoin="round"/>
<path d="M381.3,330.5 C379.2,334.5 372.2,346.2 368.7,354.5 C365.2,362.7 361.7,375.8 360.3,380.1" fill="none" stroke="#2B2B2B" stroke-width="5" stroke-linecap="round" stroke-linejoin="round"/>
<path d="M501.3,329.5 C502.8,333.7 507.2,346.4 510.2,354.9 C513.2,363.4 517.6,376.1 519.1,380.4" fill="none" stroke="#2B2B2B" stroke-width="5" stroke-linecap="round" stroke-linejoin="round"/>
<path d="M129.7,248 C129.8,252 130.5,264 130.5,272 C130.5,280 130,288 129.9,296 C129.9,304 130.2,316 130.2,320" fill="none" stroke="#2B2B2B" stroke-width="5" stroke-linecap="round" stroke-linejoin="round"/>
<path d="M129.5,319.8 C128.1,322.8 124.2,332 121.3,338 C118.4,344 114.6,349.6 112.1,355.9 C109.7,362.1 107.6,372.1 106.7,375.3" fill="none" stroke="#2B2B2B" stroke-width="5" stroke-linecap="round" stroke-linejoin="round"/>
<path d="M131.2,319.5 C132.3,322.6 135.3,332.3 137.7,338.5 C140.1,344.7 143,350.7 145.8,356.7 C148.7,362.8 153.4,371.6 154.9,374.6" fill="none" stroke="#2B2B2B" stroke-width="5" stroke-linecap="round" stroke-linejoin="round"/>
<path d="M128.9,268.8 C126.9,265.4 121.8,254.6 117.3,248.3 C112.7,241.9 106.4,236.7 101.7,230.4 C97,224.2 91.3,213.8 89.3,210.5" fill="none" stroke="#2B2B2B" stroke-width="5" stroke-linecap="round" stroke-linejoin="round"/>
<path d="M129.4,267.6 C131.6,264.4 138.2,254.6 142.7,248.3 C147.3,241.9 152.1,235.7 156.6,229.3 C161,222.8 167.4,213 169.6,209.7" fill="none" stroke="#2B2B2B" stroke-width="5" stroke-linecap="round" stroke-linejoin="round"/>
<path d="M132.9,192.9 C136.5,193.2 140.5,193.1 143.8,194.6 C147,196.1 150.2,199 152.4,201.9 C154.5,204.8 155.3,208.6 156.5,212.2 C157.7,215.7 159.5,219.5 159.4,223.1 C159.2,226.7 157.6,230.8 155.6,233.9 C153.6,237 150.5,239.6 147.5,241.7 C144.6,243.8 141.3,245.2 137.8,246.5 C134.4,247.8 130.5,249.7 126.9,249.5 C123.3,249.3 119.5,247.2 116.2,245.3 C113,243.4 109.8,241.1 107.5,238.2 C105.2,235.3 103.2,231.7 102.3,228.2 C101.5,224.7 101.9,220.6 102.5,217.1 C103.1,213.6 104.2,210 105.9,206.9 C107.6,203.8 109.9,200.9 112.6,198.5 C115.3,196.2 118.6,193.7 121.9,192.7 C125.3,191.8 129.2,192.6 132.9,192.9Z" fill="#FFE3C4" opacity="0.85" transform="translate(1.8,-3)"/>
<path d="M132.9,192.9 C134.7,193.2 140.5,193.1 143.8,194.6 C147,196.1 150.2,199 152.4,201.9 C154.5,204.8 155.3,208.6 156.5,212.2 C157.7,215.7 159.5,219.5 159.4,223.1 C159.2,226.7 157.6,230.8 155.6,233.9 C153.6,237 150.5,239.6 147.5,241.7 C144.6,243.8 141.3,245.2 137.8,246.5 C134.4,247.8 130.5,249.7 126.9,249.5 C123.3,249.3 119.5,247.2 116.2,245.3 C113,243.4 109.8,241.1 107.5,238.2 C105.2,235.3 103.2,231.7 102.3,228.2 C101.5,224.7 101.9,220.6 102.5,217.1 C103.1,213.6 104.2,210 105.9,206.9 C107.6,203.8 109.9,200.9 112.6,198.5 C115.3,196.2 118.5,194 121.9,192.7 C125.3,191.5 129.4,190.8 133,191 C136.7,191.3 140.6,192.6 143.9,194.4 C147.2,196.2 150.3,198.8 152.6,201.7 C155,204.6 157,210.1 157.9,211.7" fill="none" stroke="#2B2B2B" stroke-width="5" stroke-linecap="round" stroke-linejoin="round"/>
<circle cx="120.2" cy="216.2" r="3.5" fill="#2B2B2B"/>
<circle cx="140.7" cy="216" r="3.5" fill="#2B2B2B"/>
<path d="M118.1,228.1 C119.8,230.2 124.1,240.9 128.2,240.7 C132.3,240.4 140.5,228.9 142.9,226.5" fill="none" stroke="#2B2B2B" stroke-width="3.5" stroke-linecap="round" stroke-linejoin="round"/>
<path d="M118,229.5 C120,229.2 126,228.2 130,228 C134,227.9 140,228.5 142,228.6" fill="none" stroke="#2B2B2B" stroke-width="3" stroke-linecap="round" stroke-linejoin="round"/>
<path d="M115.2,223.5 C115.8,223.7 116.3,223.9 116.7,224.1 C117.2,224.4 117.6,224.7 117.8,225.1 C118,225.5 118,225.9 117.9,226.3 C117.9,226.7 117.9,227.1 117.6,227.5 C117.4,227.8 116.8,228.1 116.3,228.4 C115.8,228.6 115.2,228.9 114.5,229 C113.9,229.1 113.2,229 112.5,229 C111.9,229 111.1,229 110.5,228.8 C110,228.6 109.4,228.3 109,228 C108.6,227.7 108.3,227.3 108.2,226.9 C108,226.5 108,226.1 108.1,225.7 C108.1,225.3 108.1,224.9 108.4,224.5 C108.7,224.2 109.3,223.9 109.8,223.7 C110.3,223.4 110.8,223.1 111.4,223 C112,222.9 112.8,223 113.5,223 C114.1,223.1 114.7,223.3 115.2,223.5Z" fill="#FF8FA3" opacity="0.85" transform="translate(2.3,2.9)"/>
<path d="M151.7,227 C151.5,227.4 151.1,227.7 150.7,228 C150.3,228.3 149.8,228.6 149.2,228.8 C148.6,228.9 147.9,228.9 147.2,228.9 C146.6,228.9 145.9,229 145.3,228.9 C144.7,228.7 144.1,228.5 143.6,228.3 C143.1,228 142.7,227.7 142.4,227.3 C142.1,227 142,226.5 142,226.2 C141.9,225.8 142.1,225.4 142.3,225 C142.5,224.6 142.8,224.2 143.2,224 C143.7,223.7 144.3,223.5 144.9,223.4 C145.5,223.2 146.1,223.1 146.7,223 C147.4,223 148.1,223 148.7,223.1 C149.3,223.2 150,223.4 150.5,223.7 C151,223.9 151.2,224.4 151.5,224.7 C151.7,225.1 151.9,225.5 152,225.8 C152,226.2 152,226.7 151.7,227Z" fill="#FF8FA3" opacity="0.85" transform="translate(-1.9,1.8)"/>
<text x="130" y="130" font-family="'Comic Sans MS','Segoe Print','Chalkboard SE','Marker Felt','Hiragino Maru Gothic ProN','Yu Gothic',cursive" font-size="30" font-weight="700" fill="#FF9F1C" text-anchor="middle" transform="rotate(2.3 130 130)">HAHA!</text>
<text x="440" y="440" font-family="'Comic Sans MS','Segoe Print','Chalkboard SE','Marker Felt','Hiragino Maru Gothic ProN','Yu Gothic',cursive" font-size="24" font-weight="700" fill="#9E9E9E" text-anchor="middle" transform="rotate(1.8 440 440)">つかれた日は 笑って聞くだけでいい</text>
</g>
</svg>
